<svg xmlns="http://www.w3.org/2000/svg" version="1.1" xmlns:xlink="http://www.w3.org/1999/xlink" xmlns:svgjs="http://svgjs.com/svgjs" width="1440" height="560" preserveAspectRatio="none" viewBox="0 0 1440 560"><g mask="url(&quot;#SvgjsMask1029&quot;)" fill="none"><rect width="1440" height="560" x="0" y="0" fill="rgba(70, 141, 215, 1)"></rect><path d="M446.087,272.275C470.303,272.35,488.019,251.675,499.239,230.215C509.528,210.536,511.295,187.516,500.568,168.073C489.466,147.95,469.048,134.851,446.087,133.873C421.252,132.815,394.867,141.26,382.926,163.062C371.315,184.262,381.398,208.964,393.499,229.889C405.58,250.778,421.956,272.201,446.087,272.275" fill="rgba(9, 71, 138, 0.4)" class="triangle-float2"></path><path d="M68.948,245.341C100.159,243.928,121.591,217.78,137.274,190.758C153.04,163.593,167.064,130.928,151.022,103.924C135.188,77.269,99.907,74.097,68.948,75.741C41.392,77.204,15.845,88.84,0.696,111.905C-16.242,137.694,-25.054,170.001,-11.004,197.47C4.157,227.111,35.689,246.846,68.948,245.341" fill="rgba(9, 71, 138, 0.4)" class="triangle-float1"></path><path d="M985.7611910764721 194.1752198661932L1116.6524827000476 76.54585204392765 971.1988325428363 26.462143841025068z" fill="rgba(9, 71, 138, 0.4)" class="triangle-float1"></path><path d="M659.723,320.092C682.853,321.033,708.413,314.593,719.045,294.03C729.174,274.439,715.779,252.871,704.176,234.115C693.427,216.74,680.144,198.768,659.723,198.139C638.473,197.485,620.7,212.703,610.26,231.223C600.026,249.378,598.072,271.312,608.208,289.522C618.616,308.222,638.34,319.222,659.723,320.092" fill="rgba(9, 71, 138, 0.4)" class="triangle-float1"></path><path d="M1025.0864085332214 475.55679262583726L915.396504391249 515.4806527330283 955.32036449844 625.1705568750006 1065.0102686404123 585.2466967678097z" fill="rgba(9, 71, 138, 0.4)" class="triangle-float2"></path><path d="M1325.4,286.814C1349.68,288.221,1378.6,287.928,1390.43,266.678C1402.115,245.689,1384.76,222.602,1372.723,201.812C1360.727,181.092,1349.28,156.078,1325.4,154.361C1299.534,152.502,1276.289,170.883,1264.616,194.04C1253.966,215.168,1259.269,240.037,1272.236,259.828C1283.91,277.645,1304.135,285.581,1325.4,286.814" fill="rgba(9, 71, 138, 0.4)" class="triangle-float1"></path><path d="M696.62 474.26 a102.22 102.22 0 1 0 204.44 0 a102.22 102.22 0 1 0 -204.44 0z" fill="rgba(9, 71, 138, 0.4)" class="triangle-float3"></path></g><defs><mask id="SvgjsMask1029"><rect width="1440" height="560" fill="#ffffff"></rect></mask><style>
            @keyframes float1 {
                0%{transform: translate(0, 0)}
                50%{transform: translate(-10px, 0)}
                100%{transform: translate(0, 0)}
            }

            .triangle-float1 {
                animation: float1 5s infinite;
            }

            @keyframes float2 {
                0%{transform: translate(0, 0)}
                50%{transform: translate(-5px, -5px)}
                100%{transform: translate(0, 0)}
            }

            .triangle-float2 {
                animation: float2 4s infinite;
            }

            @keyframes float3 {
                0%{transform: translate(0, 0)}
                50%{transform: translate(0, -10px)}
                100%{transform: translate(0, 0)}
            }

            .triangle-float3 {
                animation: float3 6s infinite;
            }
        </style></defs></svg>