<svg xmlns="http://www.w3.org/2000/svg" version="1.1" xmlns:xlink="http://www.w3.org/1999/xlink" xmlns:svgjs="http://svgjs.com/svgjs" width="1440" height="500" preserveAspectRatio="none" viewBox="0 0 1440 500"><g mask="url(&quot;#SvgjsMask1025&quot;)" fill="none"><path d="M -637.1378859282862,273 C -541.14,249 -349.14,132.8 -157.13788592828624,153 C 34.86,173.2 130.86,371 322.8621140717138,374 C 514.86,377 610.86,187.8 802.8621140717138,168 C 994.86,148.2 1155.43,293 1282.8621140717137,275 C 1410.29,257 1408.57,117.4 1440,78" stroke="rgba(51, 121, 194, 0.58)" stroke-width="2"></path><path d="M -333.24053527969505,165 C -237.24,186.6 -45.24,265 146.75946472030495,273 C 338.76,281 434.76,197.8 626.759464720305,205 C 818.76,212.2 914.76,304.2 1106.759464720305,309 C 1298.76,313.8 1520.11,206.2 1586.759464720305,229 C 1653.41,251.8 1469.35,384.2 1440,423" stroke="rgba(51, 121, 194, 0.58)" stroke-width="2"></path><path d="M -344.8678455257336,133 C -248.87,182.2 -56.87,358 135.13215447426634,379 C 327.13,400 423.13,232 615.1321544742664,238 C 807.13,244 903.13,408.8 1095.1321544742664,409 C 1287.13,409.2 1506.16,267.6 1575.1321544742664,239 C 1644.11,210.4 1467.03,260.6 1440,266" stroke="rgba(51, 121, 194, 0.58)" stroke-width="2"></path><path d="M -883.2917679843808,247 C -787.29,252.8 -595.29,309.6 -403.2917679843808,276 C -211.29,242.4 -115.29,72 76.70823201561922,79 C 268.71,86 364.71,298.2 556.7082320156192,311 C 748.71,323.8 860.05,115.8 1036.7082320156192,143 C 1213.37,170.2 1359.34,386.2 1440,447" stroke="rgba(51, 121, 194, 0.58)" stroke-width="2"></path></g><defs><mask id="SvgjsMask1025"><rect width="1440" height="500" fill="#ffffff"></rect></mask></defs></svg>