<svg xmlns="http://www.w3.org/2000/svg" viewBox="0 0 1440 320">
  <path fill="#49A8FF" fill-opacity="1" d="M0,0L20,10.7C40,21,80,43,120,42.7C160,43,200,21,240,21.3C280,21,320,43,360,74.7C400,107,440,149,480,176C520,203,560,213,600,208C640,203,680,181,720,197.3C760,213,800,267,840,288C880,309,920,299,960,282.7C1000,267,1040,245,1080,240C1120,235,1160,245,1200,224C1240,203,1280,149,1320,112C1360,75,1400,53,1420,42.7L1440,32L1440,320L1420,320C1400,320,1360,320,1320,320C1280,320,1240,320,1200,320C1160,320,1120,320,1080,320C1040,320,1000,320,960,320C920,320,880,320,840,320C800,320,760,320,720,320C680,320,640,320,600,320C560,320,520,320,480,320C440,320,400,320,360,320C320,320,280,320,240,320C200,320,160,320,120,320C80,320,40,320,20,320L0,320Z"></path>
</svg>