<?xml version="1.0" standalone="no"?><svg xmlns="http://www.w3.org/2000/svg" viewBox="0 0 1440 320"><path fill="#49A8FF" fill-opacity="1" d="M0,288L34.3,261.3C68.6,235,137,181,206,181.3C274.3,181,343,235,411,213.3C480,192,549,96,617,90.7C685.7,85,754,171,823,192C891.4,213,960,171,1029,133.3C1097.1,96,1166,64,1234,85.3C1302.9,107,1371,181,1406,218.7L1440,256L1440,0L1405.7,0C1371.4,0,1303,0,1234,0C1165.7,0,1097,0,1029,0C960,0,891,0,823,0C754.3,0,686,0,617,0C548.6,0,480,0,411,0C342.9,0,274,0,206,0C137.1,0,69,0,34,0L0,0Z"></path></svg>